<?xml version="1.0" encoding="UTF-8"?>
<svg id="Calque_2" xmlns="http://www.w3.org/2000/svg" viewBox="0 0 176.73 296.47">
  <defs>
    <style>
      .cls-1 {
        font-family: MyriadPro-Regular, 'Myriad Pro';
        font-size: 12px;
      }
    </style>
  </defs>
  <g id="Calque_1-2" data-name="Calque_1">
    <text class="cls-1" transform="translate(99.6 5.47) rotate(146.24)"><tspan x="0" y="0">L</tspan></text>
    <text class="cls-1" transform="translate(94.83 8.65) rotate(143.73)"><tspan x="0" y="0">o</tspan></text>
    <text class="cls-1" transform="translate(89.39 12.68) rotate(141.71)"><tspan x="0" y="0">r</tspan></text>
    <text class="cls-1" transform="translate(86.28 15.11) rotate(139.95)"><tspan x="0" y="0">e</tspan></text>
    <text class="cls-1" transform="translate(81.45 19.12) rotate(137.19)"><tspan x="0" y="0">m</tspan></text>
    <text class="cls-1" transform="translate(74.02 26.1) rotate(135.13)"><tspan x="0" y="0"> </tspan></text>
    <text class="cls-1" transform="translate(72.17 27.94) rotate(134.28)"><tspan x="0" y="0">i</tspan></text>
    <text class="cls-1" transform="translate(70.1 30.03) rotate(132.77)"><tspan x="0" y="0">p</tspan></text>
    <text class="cls-1" transform="translate(65.36 35.18) rotate(131)"><tspan x="0" y="0">s</tspan></text>
    <text class="cls-1" transform="translate(62.17 38.83) rotate(129.32)"><tspan x="0" y="0">u</tspan></text>
    <text class="cls-1" transform="translate(57.94 43.94) rotate(126.96)"><tspan x="0" y="0">m</tspan></text>
    <text class="cls-1" transform="translate(52 51.92) rotate(125.26)"><tspan x="0" y="0"> </tspan></text>
    <text class="cls-1" transform="translate(50.54 53.96) rotate(124.01)"><tspan x="0" y="0">d</tspan></text>
    <text class="cls-1" transform="translate(46.78 59.52) rotate(122.27)"><tspan x="0" y="0">o</tspan></text>
    <text class="cls-1" transform="translate(43.32 65.05) rotate(121.07)"><tspan x="0" y="0">l</tspan></text>
    <text class="cls-1" transform="translate(41.85 67.44) rotate(119.88)"><tspan x="0" y="0">o</tspan></text>
    <text class="cls-1" transform="translate(38.6 73.13) rotate(118.58)"><tspan x="0" y="0">r</tspan></text>
    <text class="cls-1" transform="translate(36.74 76.56) rotate(117.79)"><tspan x="0" y="0"> </tspan></text>
    <text class="cls-1" transform="translate(35.57 78.77) rotate(116.92)"><tspan x="0" y="0">s</tspan></text>
    <text class="cls-1" transform="translate(33.44 82.98) rotate(116.03)"><tspan x="0" y="0">i</tspan></text>
    <text class="cls-1" transform="translate(32.21 85.48) rotate(115.24)"><tspan x="0" y="0">t</tspan></text>
    <text class="cls-1" transform="translate(30.53 89.06) rotate(114.49)"><tspan x="0" y="0"> </tspan></text>
    <text class="cls-1" transform="translate(29.48 91.33) rotate(113.54)"><tspan x="0" y="0">a</tspan></text>
    <text class="cls-1" transform="translate(27.16 96.57) rotate(111.8)"><tspan x="0" y="0">m</tspan></text>
    <text class="cls-1" transform="translate(23.49 105.83) rotate(110.08)"><tspan x="0" y="0">e</tspan></text>
    <text class="cls-1" transform="translate(21.45 111.44) rotate(109.05)"><tspan x="0" y="0">t</tspan></text>
    <text class="cls-1" transform="translate(20.17 115.15) rotate(108.39)"><tspan x="0" y="0">,</tspan></text>
    <text class="cls-1" transform="translate(19.4 117.48) rotate(107.88)"><tspan x="0" y="0"> </tspan></text>
    <text class="cls-1" transform="translate(18.61 119.88) rotate(107.09)"><tspan x="0" y="0">c</tspan></text>
    <text class="cls-1" transform="translate(17.06 124.91) rotate(105.94)"><tspan x="0" y="0">o</tspan></text>
    <text class="cls-1" transform="translate(15.26 131.2) rotate(104.69)"><tspan x="0" y="0">n</tspan></text>
    <text class="cls-1" transform="translate(13.59 137.62) rotate(103.63)"><tspan x="0" y="0">s</tspan></text>
    <text class="cls-1" transform="translate(12.47 142.21) rotate(102.66)"><tspan x="0" y="0">e</tspan></text>
    <text class="cls-1" transform="translate(11.16 148.04) rotate(101.66)"><tspan x="0" y="0">c</tspan></text>
    <text class="cls-1" transform="translate(10.06 153.42) rotate(100.84)"><tspan x="0" y="0">t</tspan></text>
    <text class="cls-1" transform="translate(9.32 157.23) rotate(100.01)"><tspan x="0" y="0">e</tspan></text>
    <text class="cls-1" transform="translate(8.28 163.13) rotate(99.19)"><tspan x="0" y="0">t</tspan></text>
    <text class="cls-1" transform="translate(7.65 167.02) rotate(98.34)"><tspan x="0" y="0">u</tspan></text>
    <text class="cls-1" transform="translate(6.69 173.53) rotate(97.36)"><tspan x="0" y="0">e</tspan></text>
    <text class="cls-1" transform="translate(5.93 179.47) rotate(96.61)"><tspan x="0" y="0">r</tspan></text>
    <text class="cls-1" transform="translate(5.49 183.35) rotate(96.12)"><tspan x="0" y="0"> </tspan></text>
    <text class="cls-1" transform="translate(5.21 185.86) rotate(95.51)"><tspan x="0" y="0">a</tspan></text>
    <text class="cls-1" transform="translate(4.65 191.6) rotate(94.61)"><tspan x="0" y="0">d</tspan></text>
    <text class="cls-1" transform="translate(4.12 198.32) rotate(93.95)"><tspan x="0" y="0">i</tspan></text>
    <text class="cls-1" transform="translate(3.92 201.09) rotate(93.29)"><tspan x="0" y="0">p</tspan></text>
    <text class="cls-1" transform="translate(3.54 207.88) rotate(92.65)"><tspan x="0" y="0">i</tspan></text>
    <text class="cls-1" transform="translate(3.41 210.68) rotate(92.15)"><tspan x="0" y="0">s</tspan></text>
    <text class="cls-1" transform="translate(3.23 215.41) rotate(91.5)"><tspan x="0" y="0">c</tspan></text>
    <text class="cls-1" transform="translate(3.09 220.77) rotate(90.98)"><tspan x="0" y="0">i</tspan></text>
    <text class="cls-1" transform="translate(3.03 223.57) rotate(90.4)"><tspan x="0" y="0">n</tspan></text>
    <text class="cls-1" transform="translate(2.99 230.19) rotate(89.6)"><tspan x="0" y="0">g</tspan></text>
    <text class="cls-1" transform="translate(3.04 236.9) rotate(89.05)"><tspan x="0" y="0"> </tspan></text>
    <text class="cls-1" transform="translate(3.08 239.41) rotate(88.56)"><tspan x="0" y="0">e</tspan></text>
    <text class="cls-1" transform="translate(3.24 245.41) rotate(88.38)"><tspan x="0" y="0">l</tspan><tspan x="2.86" y="-.02">i</tspan></text>
    <text class="cls-1" transform="translate(3.43 251.21) rotate(86.67)"><tspan x="0" y="0">t</tspan></text>
    <text class="cls-1" transform="translate(3.64 255.12) rotate(86.55)"><tspan x="0" y="0">,</tspan></text>
    <text class="cls-1" transform="translate(3.79 257.61) rotate(86.01)"><tspan x="0" y="0"> </tspan></text>
    <text class="cls-1" transform="translate(3.96 260.12) rotate(85.13)"><tspan x="0" y="0">s</tspan></text>
    <text class="cls-1" transform="translate(4.36 264.91) rotate(83.51)"><tspan x="0" y="0">e</tspan></text>
    <text class="cls-1" transform="translate(5.05 271.13) rotate(80.78)"><tspan x="0" y="0">d</tspan></text>
    <text class="cls-1" transform="translate(6.23 278.06) rotate(77.83)"><tspan x="0" y="0"> </tspan></text>
    <text class="cls-1" transform="translate(6.77 280.96) rotate(73.25)"><tspan x="0" y="0">d</tspan></text>
    <text class="cls-1" transform="translate(9.13 288.2) rotate(63.98)"><tspan x="0" y="0">i</tspan></text>
    <text class="cls-1" transform="translate(12.58 294.46) rotate(19.32)"><tspan x="0" y="0">a</tspan></text>
    <text class="cls-1" transform="translate(23.7 293.69) rotate(-44.95)"><tspan x="0" y="0">m</tspan></text>
    <text class="cls-1" transform="translate(30.98 285.99) rotate(-51.63)"><tspan x="0" y="0"> </tspan></text>
    <text class="cls-1" transform="translate(32.76 283.81) rotate(-54.47)"><tspan x="0" y="0">n</tspan></text>
    <text class="cls-1" transform="translate(36.75 278.19) rotate(-57.19)"><tspan x="0" y="0">o</tspan></text>
    <text class="cls-1" transform="translate(40.33 272.62) rotate(-59.03)"><tspan x="0" y="0">n</tspan></text>
    <text class="cls-1" transform="translate(43.74 266.93) rotate(-60.39)"><tspan x="0" y="0">u</tspan></text>
    <text class="cls-1" transform="translate(47 261.24) rotate(-61.67)"><tspan x="0" y="0">m</tspan></text>
    <text class="cls-1" transform="translate(51.72 252.47) rotate(-62.83)"><tspan x="0" y="0">m</tspan></text>
    <text class="cls-1" transform="translate(56.21 243.7) rotate(-63.51)"><tspan x="0" y="0">y</tspan></text>
    <text class="cls-1" transform="translate(58.72 238.64) rotate(-63.82)"><tspan x="0" y="0"> </tspan></text>
    <text class="cls-1" transform="translate(59.84 236.38) rotate(-64.13)"><tspan x="0" y="0">n</tspan></text>
    <text class="cls-1" transform="translate(62.74 230.39) rotate(-64.42)"><tspan x="0" y="0">i</tspan></text>
    <text class="cls-1" transform="translate(63.96 227.86) rotate(-64.68)"><tspan x="0" y="0">b</tspan></text>
    <text class="cls-1" transform="translate(66.86 221.71) rotate(-64.99)"><tspan x="0" y="0">h</tspan></text>
    <text class="cls-1" transform="translate(69.68 215.67) rotate(-65.18)"><tspan x="0" y="0"> </tspan></text>
    <text class="cls-1" transform="translate(70.75 213.36) rotate(-65.34)"><tspan x="0" y="0">e</tspan></text>
    <text class="cls-1" transform="translate(73.26 207.89) rotate(-65.55)"><tspan x="0" y="0">u</tspan></text>
    <text class="cls-1" transform="translate(75.99 201.88) rotate(-65.68)"><tspan x="0" y="0">i</tspan></text>
    <text class="cls-1" transform="translate(77.14 199.34) rotate(-65.78)"><tspan x="0" y="0">s</tspan></text>
    <text class="cls-1" transform="translate(79.09 195) rotate(-65.94)"><tspan x="0" y="0">m</tspan></text>
    <text class="cls-1" transform="translate(83.18 185.84) rotate(-66.08)"><tspan x="0" y="0">o</tspan></text>
    <text class="cls-1" transform="translate(85.84 179.84) rotate(-66.17)"><tspan x="0" y="0">d</tspan></text>
    <text class="cls-1" transform="translate(88.58 173.64) rotate(-66.22)"><tspan x="0" y="0"> </tspan></text>
    <text class="cls-1" transform="translate(89.6 171.32) rotate(-66.25)"><tspan x="0" y="0">t</tspan></text>
    <text class="cls-1" transform="translate(91.2 167.69) rotate(-66.27)"><tspan x="0" y="0">i</tspan></text>
    <text class="cls-1" transform="translate(92.33 165.12) rotate(-66.29)"><tspan x="0" y="0">n</tspan></text>
    <text class="cls-1" transform="translate(95.02 159) rotate(-66.3)"><tspan x="0" y="0">c</tspan></text>
    <text class="cls-1" transform="translate(97.18 154.07) rotate(-66.3)"><tspan x="0" y="0">i</tspan></text>
    <text class="cls-1" transform="translate(98.31 151.51) rotate(-66.29)"><tspan x="0" y="0">d</tspan></text>
    <text class="cls-1" transform="translate(101.03 145.31) rotate(-66.26)"><tspan x="0" y="0">u</tspan></text>
    <text class="cls-1" transform="translate(103.68 139.27) rotate(-66.2)"><tspan x="0" y="0">n</tspan></text>
    <text class="cls-1" transform="translate(106.36 133.21) rotate(-66.14)"><tspan x="0" y="0">t</tspan></text>
    <text class="cls-1" transform="translate(107.96 129.59) rotate(-66.09)"><tspan x="0" y="0"> </tspan></text>
    <text class="cls-1" transform="translate(108.99 127.26) rotate(-66.01)"><tspan x="0" y="0">u</tspan></text>
    <text class="cls-1" transform="translate(111.69 121.2) rotate(-65.91)"><tspan x="0" y="0">t</tspan></text>
    <text class="cls-1" transform="translate(113.3 117.59) rotate(-65.83)"><tspan x="0" y="0"> </tspan></text>
    <text class="cls-1" transform="translate(114.35 115.26) rotate(-65.77)"><tspan x="0" y="0">l</tspan></text>
    <text class="cls-1" transform="translate(115.51 112.69) rotate(-65.65)"><tspan x="0" y="0">a</tspan></text>
    <text class="cls-1" transform="translate(117.88 107.43) rotate(-65.45)"><tspan x="0" y="0">o</tspan></text>
    <text class="cls-1" transform="translate(120.62 101.43) rotate(-65.25)"><tspan x="0" y="0">r</tspan></text>
    <text class="cls-1" transform="translate(122.2 98.01) rotate(-65.04)"><tspan x="0" y="0">e</tspan></text>
    <text class="cls-1" transform="translate(124.73 92.56) rotate(-64.73)"><tspan x="0" y="0">e</tspan></text>
    <text class="cls-1" transform="translate(127.3 87.13) rotate(-64.44)"><tspan x="0" y="0">t</tspan></text>
    <text class="cls-1" transform="translate(129.02 83.55) rotate(-64.22)"><tspan x="0" y="0"> </tspan></text>
    <text class="cls-1" transform="translate(130.11 81.27) rotate(-63.88)"><tspan x="0" y="0">d</tspan></text>
    <text class="cls-1" transform="translate(133.08 75.22) rotate(-63.29)"><tspan x="0" y="0">o</tspan></text>
    <text class="cls-1" transform="translate(136.03 69.35) rotate(-62.79)"><tspan x="0" y="0">l</tspan></text>
    <text class="cls-1" transform="translate(137.31 66.85) rotate(-62.2)"><tspan x="0" y="0">o</tspan></text>
    <text class="cls-1" transform="translate(140.39 61.03) rotate(-61.4)"><tspan x="0" y="0">r</tspan></text>
    <text class="cls-1" transform="translate(142.18 57.72) rotate(-60.5)"><tspan x="0" y="0">e</tspan></text>
    <text class="cls-1" transform="translate(145.14 52.52) rotate(-59.52)"><tspan x="0" y="0"> </tspan></text>
    <text class="cls-1" transform="translate(146.33 50.35) rotate(-57.61)"><tspan x="0" y="0">m</tspan></text>
    <text class="cls-1" transform="translate(151.66 42.04) rotate(-53.79)"><tspan x="0" y="0">a</tspan></text>
    <text class="cls-1" transform="translate(154.92 37.47) rotate(-48.24)"><tspan x="0" y="0">g</tspan></text>
    <text class="cls-1" transform="translate(158.92 32.72) rotate(-35.15)"><tspan x="0" y="0">n</tspan></text>
    <text class="cls-1" transform="translate(163.34 29.04) rotate(-.32)"><tspan x="0" y="0">a</tspan></text>
    <text class="cls-1" transform="translate(167.94 29.18) rotate(35.22)"><tspan x="0" y="0"> </tspan></text>
  </g>
</svg>